#tb 0: 1/25
0,          0,          0,        1,   599040, 0x1cf21d79
0,          1,          1,        1,   599040, 0x1cf21d79
0,          2,          2,        1,   599040, 0xb54ee9e0
0,          3,          3,        1,   599040, 0x757f33f0
0,          4,          4,        1,   599040, 0x783e06bc
0,          5,          5,        1,   599040, 0x73127ae7
0,          6,          6,        1,   599040, 0x52f86193
0,          7,          7,        1,   599040, 0x8e8afa2c
0,          8,          8,        1,   599040, 0x29359620
0,          9,          9,        1,   599040, 0x23f46fd3
0,         10,         10,        1,   599040, 0x00c9d47d
0,         11,         11,        1,   599040, 0xcabcca8d
0,         12,         12,        1,   599040, 0x02e92d89
0,         13,         13,        1,   599040, 0x3e97268f
0,         14,         14,        1,   599040, 0xba6230c2
0,         15,         15,        1,   599040, 0x4393aa3b
0,         16,         16,        1,   599040, 0x06b1b9c8
0,         17,         17,        1,   599040, 0xcc2aa30b
0,         18,         18,        1,   599040, 0x3e029a11
0,         19,         19,        1,   599040, 0x0ec1fc36
0,         20,         20,        1,   599040, 0xd61dd438
0,         21,         21,        1,   599040, 0xa7b1816b
0,         22,         22,        1,   599040, 0xa98ef225
0,         23,         23,        1,   599040, 0x368912ca
0,         24,         24,        1,   599040, 0x1ae95cbe
0,         25,         25,        1,   599040, 0x0e01f8ed
0,         26,         26,        1,   599040, 0x05497937
0,         27,         27,        1,   599040, 0x735c2420
0,         28,         28,        1,   599040, 0x0ef80004
0,         29,         29,        1,   599040, 0xd744091b
0,         30,         30,        1,   599040, 0x0f3b1576
0,         31,         31,        1,   599040, 0x24e4fab9
0,         32,         32,        1,   599040, 0x6b5d7fca
0,         33,         33,        1,   599040, 0x2afcdaec
0,         34,         34,        1,   599040, 0x39dfd5b6
0,         35,         35,        1,   599040, 0xe5844f4e
0,         36,         36,        1,   599040, 0xf26920d9
0,         37,         37,        1,   599040, 0x8feb56e2
0,         38,         38,        1,   599040, 0x6433712f
0,         39,         39,        1,   599040, 0xba311758
0,         40,         40,        1,   599040, 0x09f87643
0,         41,         41,        1,   599040, 0x68562c28
0,         42,         42,        1,   599040, 0x9465e267
0,         43,         43,        1,   599040, 0x03e2802f
0,         44,         44,        1,   599040, 0xa61ed250
0,         45,         45,        1,   599040, 0x5ab680db
0,         46,         46,        1,   599040, 0xc4663840
0,         47,         47,        1,   599040, 0xefe83a4f
0,         48,         48,        1,   599040, 0x7bfb4ecd
0,         49,         49,        1,   599040, 0xcafdbfd0
